<svg id="Grupo_11" data-name="Grupo 11" xmlns="http://www.w3.org/2000/svg" width="40.477" height="40.099" viewBox="0 0 40.477 40.099">
  <path id="Trazado_88" data-name="Trazado 88" d="M12.484,38.586a14.6,14.6,0,0,1-6.431-4.161,21.467,21.467,0,0,1-4.54-6.809A16.937,16.937,0,0,1,0,20.05a16.936,16.936,0,0,1,1.513-7.566,24.852,24.852,0,0,1,4.54-6.431,24.852,24.852,0,0,1,6.431-4.54A16.936,16.936,0,0,1,20.05,0a16.936,16.936,0,0,1,7.566,1.513,21.467,21.467,0,0,1,6.809,4.54,24.852,24.852,0,0,1,4.54,6.431,16.936,16.936,0,0,1,1.513,7.566,16.937,16.937,0,0,1-1.513,7.566,21.467,21.467,0,0,1-4.54,6.809,15.83,15.83,0,0,1-6.809,4.161A16.937,16.937,0,0,1,20.05,40.1,16.937,16.937,0,0,1,12.484,38.586Zm9.079-7.944V21.184h3.4l.378-3.783H21.563V13.619a4.056,4.056,0,0,1,2.27-.757h1.891v-3.4H22.7a4.346,4.346,0,0,0-4.161,2.27,5.468,5.468,0,0,0-.757,2.648V17.4H14.753v3.783h3.4V31.02h3.4Z" transform="translate(0 0)" fill="#f6f6f6"/>
</svg>
