<svg xmlns="http://www.w3.org/2000/svg" width="40.318" height="40.477" viewBox="0 0 40.318 40.477">
  <path id="Trazado_84" data-name="Trazado 84" d="M12.43,38.884A19.9,19.9,0,0,1,5.9,34.422a19.415,19.415,0,0,1-4.3-6.534A20.514,20.514,0,0,1,0,20.239a17.8,17.8,0,0,1,1.594-7.649A19.9,19.9,0,0,1,6.056,6.056,16.011,16.011,0,0,1,12.43,1.594,20.514,20.514,0,0,1,20.079,0a17.8,17.8,0,0,1,7.649,1.594,19.9,19.9,0,0,1,6.534,4.462,22.668,22.668,0,0,1,4.462,6.534,20.514,20.514,0,0,1,1.594,7.649,17.8,17.8,0,0,1-1.594,7.649,19.9,19.9,0,0,1-4.462,6.534,22.668,22.668,0,0,1-6.534,4.462,20.514,20.514,0,0,1-7.649,1.594A21.192,21.192,0,0,1,12.43,38.884Zm11.952-10.2a1.01,1.01,0,0,0,.956-.8L28.525,12.43a.563.563,0,0,0-.637-.637c-.159,0-6.534,2.39-19.282,7.171-.319.159-.478.319-.478.637s.159.478.478.637l4.621,1.434,1.912,5.737a.736.736,0,0,0,.8.478.585.585,0,0,0,.478-.159l2.709-2.55L23.9,28.685Zm-8.605-2.868-1.434-4.621c6.693-4.3,10.2-6.534,10.2-6.534.159,0,.319,0,.319.159h0s-2.868,2.709-8.765,7.968Z" fill="#f6f6f6"/>
</svg>
