<svg xmlns="http://www.w3.org/2000/svg" width="40.477" height="40.477" viewBox="0 0 40.477 40.477">
  <path id="Trazado_87" data-name="Trazado 87" d="M135.789,38.884a19.9,19.9,0,0,1-6.534-4.462,22.668,22.668,0,0,1-4.462-6.534,20.514,20.514,0,0,1-1.594-7.649,17.8,17.8,0,0,1,1.594-7.649,19.894,19.894,0,0,1,4.462-6.534,22.668,22.668,0,0,1,6.534-4.462A20.514,20.514,0,0,1,143.439,0a17.8,17.8,0,0,1,7.649,1.594,19.9,19.9,0,0,1,6.534,4.462,22.667,22.667,0,0,1,4.462,6.534,20.513,20.513,0,0,1,1.594,7.649,17.8,17.8,0,0,1-1.594,7.649,19.894,19.894,0,0,1-4.462,6.534,22.668,22.668,0,0,1-6.534,4.462,20.514,20.514,0,0,1-7.649,1.594A21.192,21.192,0,0,1,135.789,38.884Zm3.825-10.04a11.94,11.94,0,0,0,7.968-2.868,12.628,12.628,0,0,0,3.665-5.418,12.631,12.631,0,0,0,.8-3.984v-.8a6.029,6.029,0,0,0,1.275-1.116,3.342,3.342,0,0,0,.956-1.275h0a6.57,6.57,0,0,1-2.39.637h0a9.442,9.442,0,0,1,.956-.637,5.967,5.967,0,0,0,.956-1.594,8.54,8.54,0,0,1-1.753.8,5.138,5.138,0,0,0-.956.319,4.423,4.423,0,0,0-6.215,0,3.767,3.767,0,0,0-1.275,3.028,2.021,2.021,0,0,0,.159.956,10.871,10.871,0,0,1-1.912-.159A14.113,14.113,0,0,1,137.7,14.98a13.755,13.755,0,0,1-2.868-2.55A6.081,6.081,0,0,0,134.2,14.5a4.449,4.449,0,0,0,.956,2.868l.8.8h0a4.243,4.243,0,0,1-1.912-.478,4.738,4.738,0,0,0,1.275,3.187,10.807,10.807,0,0,0,1.434.956,1.2,1.2,0,0,0,.637.159,1.233,1.233,0,0,0-.478.159h-1.434a4.607,4.607,0,0,0,1.912,2.39,3.983,3.983,0,0,0,2.231.637,5.591,5.591,0,0,1-1.275.8,9.4,9.4,0,0,1-3.984,1.116H133.24A11.924,11.924,0,0,0,139.614,28.844Z" transform="translate(-123.2)" fill="#f6f6f6"/>
</svg>
